<svg width="23" height="20" viewBox="0 0 23 20" fill="none" xmlns="http://www.w3.org/2000/svg">
<path d="M15.8381 5C15.8381 4.07003 15.8381 3.60504 15.7343 3.22354C15.4528 2.18827 14.632 1.37962 13.5813 1.10222C13.1941 1 12.7222 1 11.7783 1C10.8344 1 10.3625 1 9.97531 1.10222C8.92457 1.37962 8.10384 2.18827 7.8223 3.22354C7.71855 3.60504 7.71855 4.07003 7.71855 5M4.87672 19H18.6799C19.8167 19 20.3852 19 20.8194 18.782C21.2013 18.5903 21.5119 18.2843 21.7065 17.908C21.9277 17.4802 21.9277 16.9201 21.9277 15.8V8.2C21.9277 7.07989 21.9277 6.51984 21.7065 6.09202C21.5119 5.71569 21.2013 5.40973 20.8194 5.21799C20.3852 5 19.8167 5 18.6799 5H4.87671C3.73988 5 3.17146 5 2.73724 5.21799C2.35529 5.40973 2.04476 5.71569 1.85015 6.09202C1.62891 6.51984 1.62891 7.07989 1.62891 8.2V15.8C1.62891 16.9201 1.62891 17.4802 1.85015 17.908C2.04476 18.2843 2.35529 18.5903 2.73724 18.782C3.17146 19 3.73988 19 4.87672 19Z" stroke="white" stroke-width="2" stroke-linecap="round" stroke-linejoin="round"/>
</svg>
