<svg width="23" height="22" viewBox="0 0 23 22" fill="none" xmlns="http://www.w3.org/2000/svg">
<path d="M5.19843 5L7.22831 3M7.22831 3L5.19843 1M7.22831 3H5.19843C2.95629 3 1.13867 4.79086 1.13867 7M17.3777 17L15.3478 19M15.3478 19L17.3777 21M15.3478 19H17.3777C19.6199 19 21.4375 17.2091 21.4375 15M9.45004 5.5C10.1261 2.91216 12.5103 1 15.3478 1C18.7111 1 21.4375 3.68629 21.4375 7C21.4375 9.79574 19.4968 12.1449 16.8703 12.811M13.318 15C13.318 18.3137 10.5915 21 7.22831 21C3.8651 21 1.13867 18.3137 1.13867 15C1.13867 11.6863 3.8651 9 7.22831 9C10.5915 9 13.318 11.6863 13.318 15Z" stroke="white" stroke-width="2" stroke-linecap="round" stroke-linejoin="round"/>
</svg>
