<svg width="622" height="168" viewBox="0 0 622 168" fill="none" xmlns="http://www.w3.org/2000/svg">
<g clip-path="url(#clip0_94_6693)">
<path d="M91.0209 65H83.5664L100.316 18.4545H108.43L125.18 65H117.725L104.566 26.9091H104.203L91.0209 65ZM92.2709 46.7727H116.453V52.6818H92.2709V46.7727ZM134.913 18.4545V65H128.118V18.4545H134.913ZM147.612 18.4545V65H140.817V18.4545H147.612ZM174.084 42.3864V48.2727H153.448V42.3864H174.084ZM179.903 65V30.0909H186.698V65H179.903ZM183.334 24.7045C182.153 24.7045 181.137 24.3106 180.289 23.5227C179.456 22.7197 179.039 21.7651 179.039 20.6591C179.039 19.5379 179.456 18.5833 180.289 17.7955C181.137 16.9924 182.153 16.5909 183.334 16.5909C184.516 16.5909 185.524 16.9924 186.357 17.7955C187.206 18.5833 187.63 19.5379 187.63 20.6591C187.63 21.7651 187.206 22.7197 186.357 23.5227C185.524 24.3106 184.516 24.7045 183.334 24.7045ZM199.397 44.2727V65H192.602V30.0909H199.124V35.7727H199.556C200.359 33.9242 201.617 32.4394 203.329 31.3182C205.056 30.197 207.23 29.6364 209.852 29.6364C212.23 29.6364 214.314 30.1364 216.102 31.1364C217.89 32.1212 219.276 33.5909 220.261 35.5455C221.246 37.5 221.738 39.9167 221.738 42.7955V65H214.943V43.6136C214.943 41.0833 214.283 39.1061 212.965 37.6818C211.647 36.2424 209.837 35.5227 207.533 35.5227C205.958 35.5227 204.556 35.8636 203.329 36.5455C202.117 37.2273 201.155 38.2273 200.443 39.5455C199.746 40.8485 199.397 42.4242 199.397 44.2727ZM248.181 42.3864V48.2727H227.545V42.3864H248.181ZM294.977 41.7273C294.977 46.697 294.068 50.9697 292.25 54.5455C290.432 58.1061 287.939 60.8485 284.773 62.7727C281.621 64.6818 278.038 65.6364 274.023 65.6364C269.992 65.6364 266.394 64.6818 263.227 62.7727C260.076 60.8485 257.591 58.0985 255.773 54.5227C253.954 50.947 253.045 46.6818 253.045 41.7273C253.045 36.7576 253.954 32.4924 255.773 28.9318C257.591 25.3561 260.076 22.6136 263.227 20.7045C266.394 18.7803 269.992 17.8182 274.023 17.8182C278.038 17.8182 281.621 18.7803 284.773 20.7045C287.939 22.6136 290.432 25.3561 292.25 28.9318C294.068 32.4924 294.977 36.7576 294.977 41.7273ZM288.023 41.7273C288.023 37.9394 287.409 34.75 286.182 32.1591C284.97 29.553 283.303 27.5833 281.182 26.25C279.076 24.9015 276.689 24.2273 274.023 24.2273C271.341 24.2273 268.947 24.9015 266.841 26.25C264.735 27.5833 263.068 29.553 261.841 32.1591C260.629 34.75 260.023 37.9394 260.023 41.7273C260.023 45.5152 260.629 48.7121 261.841 51.3182C263.068 53.9091 264.735 55.8788 266.841 57.2273C268.947 58.5606 271.341 59.2273 274.023 59.2273C276.689 59.2273 279.076 58.5606 281.182 57.2273C283.303 55.8788 284.97 53.9091 286.182 51.3182C287.409 48.7121 288.023 45.5152 288.023 41.7273ZM306.744 44.2727V65H299.949V30.0909H306.472V35.7727H306.904C307.707 33.9242 308.964 32.4394 310.676 31.3182C312.404 30.197 314.578 29.6364 317.199 29.6364C319.578 29.6364 321.661 30.1364 323.449 31.1364C325.237 32.1212 326.623 33.5909 327.608 35.5455C328.593 37.5 329.085 39.9167 329.085 42.7955V65H322.29V43.6136C322.29 41.0833 321.631 39.1061 320.313 37.6818C318.994 36.2424 317.184 35.5227 314.881 35.5227C313.305 35.5227 311.904 35.8636 310.676 36.5455C309.464 37.2273 308.502 38.2273 307.79 39.5455C307.093 40.8485 306.744 42.4242 306.744 44.2727ZM350.006 65.7045C346.567 65.7045 343.605 64.9697 341.12 63.5C338.65 62.0152 336.741 59.9318 335.392 57.25C334.059 54.553 333.392 51.3939 333.392 47.7727C333.392 44.197 334.059 41.0455 335.392 38.3182C336.741 35.5909 338.62 33.4621 341.029 31.9318C343.453 30.4015 346.286 29.6364 349.529 29.6364C351.498 29.6364 353.408 29.9621 355.256 30.6136C357.105 31.2652 358.764 32.2879 360.233 33.6818C361.703 35.0758 362.862 36.8864 363.711 39.1136C364.559 41.3258 364.983 44.0152 364.983 47.1818V49.5909H337.233V44.5H358.324C358.324 42.7121 357.961 41.1288 357.233 39.75C356.506 38.3561 355.483 37.2576 354.165 36.4545C352.862 35.6515 351.332 35.25 349.574 35.25C347.665 35.25 345.998 35.7197 344.574 36.6591C343.165 37.5833 342.074 38.7955 341.301 40.2955C340.544 41.7803 340.165 43.3939 340.165 45.1364V49.1136C340.165 51.447 340.574 53.4318 341.392 55.0682C342.226 56.7045 343.385 57.9545 344.87 58.8182C346.355 59.6667 348.089 60.0909 350.074 60.0909C351.362 60.0909 352.536 59.9091 353.597 59.5455C354.658 59.1667 355.574 58.6061 356.347 57.8636C357.12 57.1212 357.711 56.2045 358.12 55.1136L364.551 56.2727C364.036 58.1667 363.112 59.8258 361.779 61.25C360.461 62.6591 358.801 63.7576 356.801 64.5455C354.817 65.3182 352.551 65.7045 350.006 65.7045ZM387.461 65H380.006L396.756 18.4545H404.87L421.62 65H414.166L401.006 26.9091H400.643L387.461 65ZM388.711 46.7727H412.893V52.6818H388.711V46.7727ZM450.467 38.6136L444.308 39.7045C444.05 38.9167 443.641 38.1667 443.081 37.4545C442.535 36.7424 441.793 36.1591 440.853 35.7045C439.914 35.25 438.74 35.0227 437.331 35.0227C435.406 35.0227 433.8 35.4545 432.512 36.3182C431.225 37.1667 430.581 38.2652 430.581 39.6136C430.581 40.7803 431.012 41.7197 431.876 42.4318C432.74 43.1439 434.134 43.7273 436.058 44.1818L441.603 45.4545C444.815 46.197 447.209 47.3409 448.785 48.8864C450.361 50.4318 451.149 52.4394 451.149 54.9091C451.149 57 450.543 58.8636 449.331 60.5C448.134 62.1212 446.459 63.3939 444.308 64.3182C442.172 65.2424 439.694 65.7045 436.876 65.7045C432.967 65.7045 429.778 64.8712 427.308 63.2045C424.838 61.5227 423.323 59.1364 422.762 56.0455L429.331 55.0455C429.74 56.7576 430.581 58.053 431.853 58.9318C433.126 59.7955 434.785 60.2273 436.831 60.2273C439.058 60.2273 440.838 59.7652 442.172 58.8409C443.505 57.9015 444.172 56.7576 444.172 55.4091C444.172 54.3182 443.762 53.4015 442.944 52.6591C442.141 51.9167 440.906 51.3561 439.24 50.9773L433.331 49.6818C430.073 48.9394 427.664 47.7576 426.103 46.1364C424.558 44.5152 423.785 42.4621 423.785 39.9773C423.785 37.9167 424.361 36.1136 425.512 34.5682C426.664 33.0227 428.255 31.8182 430.285 30.9545C432.315 30.0758 434.641 29.6364 437.262 29.6364C441.035 29.6364 444.005 30.4545 446.172 32.0909C448.338 33.7121 449.77 35.8864 450.467 38.6136ZM481.541 38.6136L475.382 39.7045C475.124 38.9167 474.715 38.1667 474.155 37.4545C473.609 36.7424 472.867 36.1591 471.927 35.7045C470.988 35.25 469.814 35.0227 468.405 35.0227C466.48 35.0227 464.874 35.4545 463.587 36.3182C462.299 37.1667 461.655 38.2652 461.655 39.6136C461.655 40.7803 462.087 41.7197 462.95 42.4318C463.814 43.1439 465.208 43.7273 467.132 44.1818L472.677 45.4545C475.89 46.197 478.283 47.3409 479.859 48.8864C481.435 50.4318 482.223 52.4394 482.223 54.9091C482.223 57 481.617 58.8636 480.405 60.5C479.208 62.1212 477.533 63.3939 475.382 64.3182C473.246 65.2424 470.768 65.7045 467.95 65.7045C464.041 65.7045 460.852 64.8712 458.382 63.2045C455.912 61.5227 454.397 59.1364 453.837 56.0455L460.405 55.0455C460.814 56.7576 461.655 58.053 462.927 58.9318C464.2 59.7955 465.859 60.2273 467.905 60.2273C470.132 60.2273 471.912 59.7652 473.246 58.8409C474.579 57.9015 475.246 56.7576 475.246 55.4091C475.246 54.3182 474.837 53.4015 474.018 52.6591C473.215 51.9167 471.98 51.3561 470.314 50.9773L464.405 49.6818C461.147 48.9394 458.738 47.7576 457.177 46.1364C455.632 44.5152 454.859 42.4621 454.859 39.9773C454.859 37.9167 455.435 36.1136 456.587 34.5682C457.738 33.0227 459.329 31.8182 461.359 30.9545C463.39 30.0758 465.715 29.6364 468.337 29.6364C472.109 29.6364 475.079 30.4545 477.246 32.0909C479.412 33.7121 480.844 35.8864 481.541 38.6136ZM501.502 65.7045C498.062 65.7045 495.1 64.9697 492.615 63.5C490.145 62.0152 488.236 59.9318 486.888 57.25C485.555 54.553 484.888 51.3939 484.888 47.7727C484.888 44.197 485.555 41.0455 486.888 38.3182C488.236 35.5909 490.115 33.4621 492.524 31.9318C494.949 30.4015 497.782 29.6364 501.024 29.6364C502.994 29.6364 504.903 29.9621 506.752 30.6136C508.6 31.2652 510.259 32.2879 511.729 33.6818C513.199 35.0758 514.358 36.8864 515.206 39.1136C516.055 41.3258 516.479 44.0152 516.479 47.1818V49.5909H488.729V44.5H509.82C509.82 42.7121 509.456 41.1288 508.729 39.75C508.002 38.3561 506.979 37.2576 505.661 36.4545C504.358 35.6515 502.827 35.25 501.07 35.25C499.161 35.25 497.494 35.7197 496.07 36.6591C494.661 37.5833 493.57 38.7955 492.797 40.2955C492.039 41.7803 491.661 43.3939 491.661 45.1364V49.1136C491.661 51.447 492.07 53.4318 492.888 55.0682C493.721 56.7045 494.88 57.9545 496.365 58.8182C497.85 59.6667 499.585 60.0909 501.57 60.0909C502.858 60.0909 504.032 59.9091 505.092 59.5455C506.153 59.1667 507.07 58.6061 507.842 57.8636C508.615 57.1212 509.206 56.2045 509.615 55.1136L516.047 56.2727C515.532 58.1667 514.608 59.8258 513.274 61.25C511.956 62.6591 510.297 63.7576 508.297 64.5455C506.312 65.3182 504.047 65.7045 501.502 65.7045ZM537.076 30.0909V35.5455H518.007V30.0909H537.076ZM523.121 21.7273H529.917V54.75C529.917 56.0682 530.114 57.0606 530.507 57.7273C530.901 58.3788 531.409 58.8258 532.03 59.0682C532.667 59.2955 533.356 59.4091 534.098 59.4091C534.644 59.4091 535.121 59.3712 535.53 59.2955C535.939 59.2197 536.257 59.1591 536.485 59.1136L537.712 64.7273C537.318 64.8788 536.757 65.0303 536.03 65.1818C535.303 65.3485 534.394 65.4394 533.303 65.4545C531.515 65.4848 529.848 65.1667 528.303 64.5C526.757 63.8333 525.507 62.803 524.553 61.4091C523.598 60.0152 523.121 58.2652 523.121 56.1591V21.7273ZM2.53173 110.568V102.455H40.759V110.568H26.509V149H16.7817V110.568H2.53173ZM54.3445 149.682C50.8142 149.682 47.7611 148.932 45.1854 147.432C42.6248 145.917 40.6475 143.811 39.2536 141.114C37.8596 138.402 37.1626 135.258 37.1626 131.682C37.1626 128.076 37.8596 124.924 39.2536 122.227C40.6475 119.515 42.6248 117.409 45.1854 115.909C47.7611 114.394 50.8142 113.636 54.3445 113.636C57.8748 113.636 60.9202 114.394 63.4808 115.909C66.0566 117.409 68.0414 119.515 69.4354 122.227C70.8293 124.924 71.5263 128.076 71.5263 131.682C71.5263 135.258 70.8293 138.402 69.4354 141.114C68.0414 143.811 66.0566 145.917 63.4808 147.432C60.9202 148.932 57.8748 149.682 54.3445 149.682ZM54.3899 142.182C55.996 142.182 57.3369 141.727 58.4126 140.818C59.4884 139.894 60.299 138.636 60.8445 137.045C61.4051 135.455 61.6854 133.644 61.6854 131.614C61.6854 129.583 61.4051 127.773 60.8445 126.182C60.299 124.591 59.4884 123.333 58.4126 122.409C57.3369 121.485 55.996 121.023 54.3899 121.023C52.7687 121.023 51.4051 121.485 50.299 122.409C49.2081 123.333 48.3823 124.591 47.8217 126.182C47.2763 127.773 47.0036 129.583 47.0036 131.614C47.0036 133.644 47.2763 135.455 47.8217 137.045C48.3823 138.636 49.2081 139.894 50.299 140.818C51.4051 141.727 52.7687 142.182 54.3899 142.182ZM83.3561 138.955L83.3788 127.341H84.7879L95.9697 114.091H107.083L92.0606 131.636H89.7652L83.3561 138.955ZM74.5833 149V102.455H84.2652V149H74.5833ZM96.4015 149L86.1288 133.795L92.5833 126.955L107.742 149H96.4015ZM123.067 149.682C119.476 149.682 116.385 148.955 113.794 147.5C111.218 146.03 109.233 143.955 107.839 141.273C106.445 138.576 105.748 135.386 105.748 131.705C105.748 128.114 106.445 124.962 107.839 122.25C109.233 119.538 111.195 117.424 113.726 115.909C116.271 114.394 119.256 113.636 122.68 113.636C124.983 113.636 127.127 114.008 129.112 114.75C131.112 115.477 132.854 116.576 134.339 118.045C135.839 119.515 137.006 121.364 137.839 123.591C138.673 125.803 139.089 128.394 139.089 131.364V134.023H109.612V128.023H129.976C129.976 126.629 129.673 125.394 129.067 124.318C128.46 123.242 127.62 122.402 126.544 121.795C125.483 121.174 124.248 120.864 122.839 120.864C121.37 120.864 120.067 121.205 118.93 121.886C117.809 122.553 116.93 123.455 116.294 124.591C115.657 125.712 115.332 126.962 115.317 128.341V134.045C115.317 135.773 115.635 137.265 116.271 138.523C116.923 139.78 117.839 140.75 119.021 141.432C120.203 142.114 121.604 142.455 123.226 142.455C124.301 142.455 125.286 142.303 126.18 142C127.074 141.697 127.839 141.242 128.476 140.636C129.112 140.03 129.597 139.288 129.93 138.409L138.885 139C138.43 141.152 137.498 143.03 136.089 144.636C134.695 146.227 132.892 147.47 130.68 148.364C128.483 149.242 125.945 149.682 123.067 149.682ZM151.851 128.818V149H142.169V114.091H151.396V120.25H151.805C152.578 118.22 153.874 116.614 155.692 115.432C157.51 114.235 159.714 113.636 162.305 113.636C164.73 113.636 166.843 114.167 168.646 115.227C170.449 116.288 171.851 117.803 172.851 119.773C173.851 121.727 174.351 124.061 174.351 126.773V149H164.669V128.5C164.684 126.364 164.139 124.697 163.033 123.5C161.927 122.288 160.404 121.682 158.464 121.682C157.161 121.682 156.01 121.962 155.01 122.523C154.025 123.083 153.252 123.902 152.692 124.977C152.146 126.038 151.866 127.318 151.851 128.818ZM178.743 149V114.091H188.425V149H178.743ZM183.607 109.591C182.167 109.591 180.933 109.114 179.902 108.159C178.887 107.189 178.38 106.03 178.38 104.682C178.38 103.348 178.887 102.205 179.902 101.25C180.933 100.28 182.167 99.7955 183.607 99.7955C185.046 99.7955 186.273 100.28 187.289 101.25C188.319 102.205 188.834 103.348 188.834 104.682C188.834 106.03 188.319 107.189 187.289 108.159C186.273 109.114 185.046 109.591 183.607 109.591ZM192.76 149V143.227L209.851 122.068V121.818H193.351V114.091H221.51V120.386L205.465 141.023V141.273H222.101V149H192.76ZM236.221 149.659C233.994 149.659 232.009 149.273 230.266 148.5C228.524 147.712 227.145 146.553 226.13 145.023C225.13 143.477 224.63 141.553 224.63 139.25C224.63 137.311 224.986 135.682 225.698 134.364C226.41 133.045 227.38 131.985 228.607 131.182C229.835 130.379 231.228 129.773 232.789 129.364C234.365 128.955 236.016 128.667 237.744 128.5C239.774 128.288 241.41 128.091 242.653 127.909C243.895 127.712 244.797 127.424 245.357 127.045C245.918 126.667 246.198 126.106 246.198 125.364V125.227C246.198 123.788 245.744 122.674 244.835 121.886C243.941 121.098 242.668 120.705 241.016 120.705C239.274 120.705 237.888 121.091 236.857 121.864C235.827 122.621 235.145 123.576 234.812 124.727L225.857 124C226.312 121.879 227.206 120.045 228.539 118.5C229.872 116.939 231.592 115.742 233.698 114.909C235.819 114.061 238.274 113.636 241.062 113.636C243.001 113.636 244.857 113.864 246.63 114.318C248.418 114.773 250.001 115.477 251.38 116.432C252.774 117.386 253.872 118.614 254.675 120.114C255.478 121.598 255.88 123.379 255.88 125.455V149H246.698V144.159H246.425C245.865 145.25 245.115 146.212 244.175 147.045C243.236 147.864 242.107 148.508 240.789 148.977C239.471 149.432 237.948 149.659 236.221 149.659ZM238.994 142.977C240.418 142.977 241.675 142.697 242.766 142.136C243.857 141.561 244.713 140.788 245.335 139.818C245.956 138.848 246.266 137.75 246.266 136.523V132.818C245.963 133.015 245.547 133.197 245.016 133.364C244.501 133.515 243.918 133.659 243.266 133.795C242.615 133.917 241.963 134.03 241.312 134.136C240.66 134.227 240.069 134.311 239.539 134.386C238.403 134.553 237.41 134.818 236.562 135.182C235.713 135.545 235.054 136.038 234.585 136.659C234.115 137.265 233.88 138.023 233.88 138.932C233.88 140.25 234.357 141.258 235.312 141.955C236.281 142.636 237.509 142.977 238.994 142.977ZM278.721 114.091V121.364H257.698V114.091H278.721ZM262.471 105.727H272.153V138.273C272.153 139.167 272.289 139.864 272.562 140.364C272.835 140.848 273.214 141.189 273.698 141.386C274.198 141.583 274.774 141.682 275.426 141.682C275.88 141.682 276.335 141.644 276.789 141.568C277.244 141.477 277.592 141.409 277.835 141.364L279.357 148.568C278.873 148.72 278.191 148.894 277.312 149.091C276.433 149.303 275.365 149.432 274.107 149.477C271.774 149.568 269.729 149.258 267.971 148.545C266.229 147.833 264.873 146.727 263.903 145.227C262.933 143.727 262.456 141.833 262.471 139.545V105.727ZM281.79 149V114.091H291.471V149H281.79ZM286.653 109.591C285.214 109.591 283.979 109.114 282.949 108.159C281.933 107.189 281.426 106.03 281.426 104.682C281.426 103.348 281.933 102.205 282.949 101.25C283.979 100.28 285.214 99.7955 286.653 99.7955C288.093 99.7955 289.32 100.28 290.335 101.25C291.365 102.205 291.88 103.348 291.88 104.682C291.88 106.03 291.365 107.189 290.335 108.159C289.32 109.114 288.093 109.591 286.653 109.591ZM311.761 149.682C308.231 149.682 305.178 148.932 302.602 147.432C300.042 145.917 298.064 143.811 296.67 141.114C295.277 138.402 294.58 135.258 294.58 131.682C294.58 128.076 295.277 124.924 296.67 122.227C298.064 119.515 300.042 117.409 302.602 115.909C305.178 114.394 308.231 113.636 311.761 113.636C315.292 113.636 318.337 114.394 320.898 115.909C323.473 117.409 325.458 119.515 326.852 122.227C328.246 124.924 328.943 128.076 328.943 131.682C328.943 135.258 328.246 138.402 326.852 141.114C325.458 143.811 323.473 145.917 320.898 147.432C318.337 148.932 315.292 149.682 311.761 149.682ZM311.807 142.182C313.413 142.182 314.754 141.727 315.83 140.818C316.905 139.894 317.716 138.636 318.261 137.045C318.822 135.455 319.102 133.644 319.102 131.614C319.102 129.583 318.822 127.773 318.261 126.182C317.716 124.591 316.905 123.333 315.83 122.409C314.754 121.485 313.413 121.023 311.807 121.023C310.186 121.023 308.822 121.485 307.716 122.409C306.625 123.333 305.799 124.591 305.239 126.182C304.693 127.773 304.42 129.583 304.42 131.614C304.42 133.644 304.693 135.455 305.239 137.045C305.799 138.636 306.625 139.894 307.716 140.818C308.822 141.727 310.186 142.182 311.807 142.182ZM341.682 128.818V149H332V114.091H341.228V120.25H341.637C342.409 118.22 343.705 116.614 345.523 115.432C347.341 114.235 349.546 113.636 352.137 113.636C354.561 113.636 356.674 114.167 358.478 115.227C360.281 116.288 361.682 117.803 362.682 119.773C363.682 121.727 364.182 124.061 364.182 126.773V149H354.5V128.5C354.515 126.364 353.97 124.697 352.864 123.5C351.758 122.288 350.235 121.682 348.296 121.682C346.993 121.682 345.841 121.962 344.841 122.523C343.856 123.083 343.084 123.902 342.523 124.977C341.978 126.038 341.697 127.318 341.682 128.818ZM380.33 149V102.455H398.694C402.224 102.455 405.232 103.129 407.717 104.477C410.201 105.811 412.095 107.667 413.398 110.045C414.717 112.409 415.376 115.136 415.376 118.227C415.376 121.318 414.709 124.045 413.376 126.409C412.042 128.773 410.111 130.614 407.58 131.932C405.065 133.25 402.02 133.909 398.444 133.909H386.739V126.023H396.853C398.747 126.023 400.308 125.697 401.535 125.045C402.777 124.379 403.701 123.462 404.308 122.295C404.929 121.114 405.239 119.758 405.239 118.227C405.239 116.682 404.929 115.333 404.308 114.182C403.701 113.015 402.777 112.114 401.535 111.477C400.292 110.826 398.717 110.5 396.808 110.5H390.171V149H380.33ZM428.029 102.455V149H418.348V102.455H428.029ZM442.501 149.659C440.274 149.659 438.289 149.273 436.547 148.5C434.804 147.712 433.425 146.553 432.41 145.023C431.41 143.477 430.91 141.553 430.91 139.25C430.91 137.311 431.266 135.682 431.978 134.364C432.691 133.045 433.66 131.985 434.888 131.182C436.115 130.379 437.509 129.773 439.069 129.364C440.645 128.955 442.297 128.667 444.024 128.5C446.054 128.288 447.691 128.091 448.933 127.909C450.175 127.712 451.077 127.424 451.638 127.045C452.198 126.667 452.478 126.106 452.478 125.364V125.227C452.478 123.788 452.024 122.674 451.115 121.886C450.221 121.098 448.948 120.705 447.297 120.705C445.554 120.705 444.168 121.091 443.138 121.864C442.107 122.621 441.425 123.576 441.092 124.727L432.138 124C432.592 121.879 433.486 120.045 434.819 118.5C436.153 116.939 437.872 115.742 439.978 114.909C442.1 114.061 444.554 113.636 447.342 113.636C449.281 113.636 451.138 113.864 452.91 114.318C454.698 114.773 456.281 115.477 457.66 116.432C459.054 117.386 460.153 118.614 460.956 120.114C461.759 121.598 462.16 123.379 462.16 125.455V149H452.978V144.159H452.706C452.145 145.25 451.395 146.212 450.456 147.045C449.516 147.864 448.388 148.508 447.069 148.977C445.751 149.432 444.228 149.659 442.501 149.659ZM445.274 142.977C446.698 142.977 447.956 142.697 449.047 142.136C450.138 141.561 450.994 140.788 451.615 139.818C452.236 138.848 452.547 137.75 452.547 136.523V132.818C452.244 133.015 451.827 133.197 451.297 133.364C450.781 133.515 450.198 133.659 449.547 133.795C448.895 133.917 448.244 134.03 447.592 134.136C446.941 134.227 446.35 134.311 445.819 134.386C444.683 134.553 443.691 134.818 442.842 135.182C441.994 135.545 441.335 136.038 440.865 136.659C440.395 137.265 440.16 138.023 440.16 138.932C440.16 140.25 440.638 141.258 441.592 141.955C442.562 142.636 443.789 142.977 445.274 142.977ZM485.001 114.091V121.364H463.979V114.091H485.001ZM468.751 105.727H478.433V138.273C478.433 139.167 478.57 139.864 478.842 140.364C479.115 140.848 479.494 141.189 479.979 141.386C480.479 141.583 481.054 141.682 481.706 141.682C482.161 141.682 482.615 141.644 483.07 141.568C483.524 141.477 483.873 141.409 484.115 141.364L485.638 148.568C485.153 148.72 484.471 148.894 483.592 149.091C482.714 149.303 481.645 149.432 480.388 149.477C478.054 149.568 476.009 149.258 474.251 148.545C472.509 147.833 471.153 146.727 470.183 145.227C469.214 143.727 468.736 141.833 468.751 139.545V105.727ZM506.843 114.091V121.364H485.297V114.091H506.843ZM490.229 149V111.568C490.229 109.038 490.721 106.939 491.706 105.273C492.706 103.606 494.07 102.356 495.797 101.523C497.524 100.689 499.487 100.273 501.683 100.273C503.168 100.273 504.524 100.386 505.752 100.614C506.994 100.841 507.918 101.045 508.524 101.227L506.797 108.5C506.418 108.379 505.949 108.265 505.388 108.159C504.843 108.053 504.282 108 503.706 108C502.282 108 501.29 108.333 500.729 109C500.168 109.652 499.888 110.568 499.888 111.75V149H490.229ZM524.042 149.682C520.511 149.682 517.458 148.932 514.883 147.432C512.322 145.917 510.345 143.811 508.951 141.114C507.557 138.402 506.86 135.258 506.86 131.682C506.86 128.076 507.557 124.924 508.951 122.227C510.345 119.515 512.322 117.409 514.883 115.909C517.458 114.394 520.511 113.636 524.042 113.636C527.572 113.636 530.617 114.394 533.178 115.909C535.754 117.409 537.739 119.515 539.133 122.227C540.527 124.924 541.223 128.076 541.223 131.682C541.223 135.258 540.527 138.402 539.133 141.114C537.739 143.811 535.754 145.917 533.178 147.432C530.617 148.932 527.572 149.682 524.042 149.682ZM524.087 142.182C525.693 142.182 527.034 141.727 528.11 140.818C529.186 139.894 529.996 138.636 530.542 137.045C531.102 135.455 531.383 133.644 531.383 131.614C531.383 129.583 531.102 127.773 530.542 126.182C529.996 124.591 529.186 123.333 528.11 122.409C527.034 121.485 525.693 121.023 524.087 121.023C522.466 121.023 521.102 121.485 519.996 122.409C518.905 123.333 518.08 124.591 517.519 126.182C516.973 127.773 516.701 129.583 516.701 131.614C516.701 133.644 516.973 135.455 517.519 137.045C518.08 138.636 518.905 139.894 519.996 140.818C521.102 141.727 522.466 142.182 524.087 142.182ZM544.281 149V114.091H553.667V120.182H554.031C554.667 118.015 555.735 116.379 557.235 115.273C558.735 114.152 560.462 113.591 562.417 113.591C562.902 113.591 563.424 113.621 563.985 113.682C564.546 113.742 565.038 113.826 565.462 113.932V122.523C565.008 122.386 564.379 122.265 563.576 122.159C562.773 122.053 562.038 122 561.371 122C559.947 122 558.674 122.311 557.553 122.932C556.447 123.538 555.568 124.386 554.917 125.477C554.281 126.568 553.962 127.826 553.962 129.25V149H544.281ZM567.23 149V114.091H576.457V120.25H576.866C577.593 118.205 578.805 116.591 580.502 115.409C582.199 114.227 584.23 113.636 586.593 113.636C588.987 113.636 591.025 114.235 592.707 115.432C594.389 116.614 595.51 118.22 596.071 120.25H596.434C597.146 118.25 598.434 116.652 600.298 115.455C602.177 114.242 604.396 113.636 606.957 113.636C610.214 113.636 612.858 114.674 614.889 116.75C616.934 118.811 617.957 121.735 617.957 125.523V149H608.298V127.432C608.298 125.492 607.783 124.038 606.752 123.068C605.722 122.098 604.434 121.614 602.889 121.614C601.131 121.614 599.76 122.174 598.775 123.295C597.79 124.402 597.298 125.864 597.298 127.682V149H587.911V127.227C587.911 125.515 587.419 124.152 586.434 123.136C585.464 122.121 584.184 121.614 582.593 121.614C581.517 121.614 580.548 121.886 579.684 122.432C578.836 122.962 578.161 123.712 577.661 124.682C577.161 125.636 576.911 126.758 576.911 128.045V149H567.23Z" fill="url(#paint0_linear_94_6693)"/>
</g>
<defs>
<linearGradient id="paint0_linear_94_6693" x1="310.61" y1="11.5" x2="310.61" y2="168" gradientUnits="userSpaceOnUse">
<stop stop-color="white" stop-opacity="0.8"/>
<stop offset="1" stop-color="#023E86"/>
</linearGradient>
<clipPath id="clip0_94_6693">
<rect width="622" height="168" fill="white"/>
</clipPath>
</defs>
</svg>
