<svg width="92" height="22" viewBox="0 0 92 22" fill="none" xmlns="http://www.w3.org/2000/svg">
<path d="M26.1928 5.33203H28.2244L32.272 16.3101H30.1899L29.3667 14.0486H25.0728L24.2168 16.3101H22.1348L26.1928 5.33203ZM27.2211 8.24325L25.809 12.0119H28.6246L27.2211 8.24325Z" fill="white"/>
<path d="M38.3693 9.32369L37.1603 10.5849C36.6691 10.0773 36.2231 9.82381 35.8222 9.82381C35.6028 9.82381 35.4312 9.87232 35.3074 9.96934C35.1837 10.0664 35.1214 10.1873 35.1214 10.3314C35.1214 10.4408 35.1607 10.5419 35.2393 10.6334C35.3179 10.7257 35.5124 10.8514 35.8222 11.0106L36.5374 11.3836C37.2906 11.7717 37.8087 12.1673 38.0896 12.5704C38.3713 12.9735 38.5114 13.4463 38.5114 13.9881C38.5114 14.7096 38.2573 15.3115 37.7497 15.7938C37.2415 16.2762 36.561 16.5181 35.707 16.5181C34.5719 16.5181 33.6655 16.0555 32.9883 15.1297L34.1901 13.764C34.4193 14.0427 34.6872 14.2675 34.995 14.4397C35.3029 14.6112 35.5753 14.6973 35.8144 14.6973C36.0718 14.6973 36.2794 14.6323 36.4366 14.5032C36.5938 14.3741 36.6723 14.2245 36.6723 14.0557C36.6723 13.7421 36.3888 13.436 35.8209 13.1375L35.1627 12.7945C33.9032 12.1331 33.2738 11.3044 33.2738 10.3089C33.2738 9.66735 33.5109 9.11872 33.9858 8.66369C34.4606 8.20867 35.0671 7.98047 35.8065 7.98047C36.3121 7.98047 36.7876 8.09593 37.2336 8.32755C37.6797 8.55916 38.0576 8.89121 38.3673 9.32369H38.3693Z" fill="white"/>
<path d="M44.8166 9.32369L43.6075 10.5849C43.1163 10.0773 42.6703 9.82381 42.2695 9.82381C42.0501 9.82381 41.8785 9.87232 41.7547 9.96934C41.6309 10.0664 41.5687 10.1873 41.5687 10.3314C41.5687 10.4408 41.608 10.5419 41.6866 10.6334C41.7652 10.7257 41.9597 10.8514 42.2695 11.0106L42.9847 11.3836C43.7379 11.7717 44.2559 12.1673 44.5369 12.5704C44.8185 12.9735 44.9587 13.4463 44.9587 13.9881C44.9587 14.7096 44.7046 15.3115 44.197 15.7938C43.6888 16.2762 43.0083 16.5181 42.1542 16.5181C41.0192 16.5181 40.1128 16.0555 39.4355 15.1297L40.6374 13.764C40.8666 14.0427 41.1345 14.2675 41.4423 14.4397C41.7501 14.6112 42.0226 14.6973 42.2616 14.6973C42.519 14.6973 42.7266 14.6323 42.8838 14.5032C43.041 14.3741 43.1196 14.2245 43.1196 14.0557C43.1196 13.7421 42.836 13.436 42.2682 13.1375L41.61 12.7945C40.3505 12.1331 39.7211 11.3044 39.7211 10.3089C39.7211 9.66735 39.9582 9.11872 40.433 8.66369C40.9079 8.20867 41.5143 7.98047 42.2538 7.98047C42.7594 7.98047 43.2349 8.09593 43.6809 8.32755C44.1269 8.55916 44.5048 8.89121 44.8146 9.32369H44.8166Z" fill="white"/>
<path d="M54.296 12.8389H48.0217C48.1121 13.4162 48.3544 13.8753 48.748 14.2156C49.1416 14.5565 49.6433 14.7266 50.2537 14.7266C50.9833 14.7266 51.6108 14.4609 52.1354 13.9279L53.7806 14.7341C53.3706 15.3409 52.8794 15.7904 52.307 16.0815C51.7346 16.3725 51.0547 16.5181 50.2681 16.5181C49.0473 16.5181 48.0525 16.1163 47.2849 15.3128C46.5166 14.5094 46.1328 13.503 46.1328 12.2944C46.1328 11.0857 46.5153 10.0267 47.2809 9.20822C48.0466 8.38972 49.0061 7.98047 50.1607 7.98047C51.3861 7.98047 52.383 8.38972 53.1512 9.20822C53.9188 10.0267 54.3033 11.1076 54.3033 12.4508L54.296 12.8389ZM52.343 11.2347C52.214 10.7824 51.9599 10.4134 51.58 10.1299C51.2001 9.84636 50.7593 9.70424 50.2577 9.70424C49.7127 9.70424 49.2353 9.86344 48.8246 10.1818C48.5666 10.3806 48.3275 10.7318 48.1081 11.234H52.3437L52.343 11.2347Z" fill="white"/>
<path d="M56.1127 5.19824H58.0658V8.19077H59.225V9.94461H58.0658V16.3102H56.1127V9.94461H55.1113V8.19077H56.1127V5.19824Z" fill="white"/>
<path d="M60.4909 5.33174H62.8638C64.3937 5.33174 65.53 5.52919 66.2734 5.92478C67.0168 6.32037 67.6291 6.96328 68.1105 7.85421C68.5919 8.74513 68.8323 9.78432 68.8323 10.9738C68.8323 11.8196 68.6974 12.5972 68.4282 13.3057C68.159 14.0148 67.787 14.6031 67.3128 15.0704C66.8386 15.5384 66.3251 15.8616 65.7724 16.0406C65.2196 16.2196 64.2621 16.3091 62.8991 16.3091H60.4902V5.33105L60.4909 5.33174ZM62.4793 7.34725V14.2731H63.4093C64.3249 14.2731 64.9891 14.1638 65.4017 13.9445C65.8143 13.7252 66.1516 13.3569 66.4142 12.839C66.6762 12.3211 66.8078 11.6837 66.8078 10.9267C66.8078 9.76109 66.4954 8.85718 65.8706 8.21495C65.308 7.63694 64.4042 7.34862 63.1591 7.34862H62.4793V7.34725Z" fill="white"/>
<path d="M73.9526 5.33203H75.9842L80.0318 16.3101H77.9497L77.1264 14.0486H72.8326L71.9766 16.3101H69.8945L73.9526 5.33203ZM74.9808 8.24325L73.5688 12.0119H76.3844L74.9808 8.24325Z" fill="white"/>
<path d="M86.5516 5.05566C88.0403 5.05566 89.3207 5.61796 90.3922 6.74255C91.4637 7.86714 91.9994 9.23769 91.9994 10.8549C91.9994 12.4721 91.4709 13.8126 90.4138 14.9221C89.3567 16.0317 88.0744 16.5865 86.566 16.5865C85.0577 16.5865 83.6738 16.0166 82.6285 14.8777C81.5832 13.7388 81.0605 12.3853 81.0605 10.818C81.0605 9.76855 81.3042 8.80315 81.7908 7.92248C82.2774 7.0418 82.9468 6.34423 83.7989 5.82908C84.651 5.31392 85.5679 5.05703 86.5516 5.05703V5.05566ZM86.5306 7.10056C85.5567 7.10056 84.7381 7.45378 84.0739 8.16024C83.4105 8.86669 83.0784 9.76514 83.0784 10.8542C83.0784 12.0683 83.4963 13.0282 84.332 13.7347C84.981 14.2867 85.7264 14.5627 86.566 14.5627C87.5163 14.5627 88.3252 14.2047 88.9939 13.488C89.6626 12.7713 89.9966 11.8886 89.9966 10.8385C89.9966 9.78837 89.66 8.90905 88.9867 8.18552C88.3134 7.4613 87.4947 7.09987 86.5306 7.09987V7.10056Z" fill="white"/>
<path d="M1.39965 12.6354C1.55028 12.8062 1.62102 13.0249 1.6125 13.2401C1.60399 13.4553 1.51688 13.6671 1.35315 13.8242C1.02567 14.1392 0.515473 14.1174 0.213543 13.7757C0.0629057 13.6049 -0.00782832 13.3863 0.000685967 13.1711C0.00920025 12.9559 0.0963074 12.7441 0.260044 12.5869C0.587516 12.272 1.09772 12.2938 1.39965 12.6354Z" fill="white"/>
<path d="M12.7101 7.32254C12.7082 7.34441 12.7055 7.36627 12.7049 7.38745C12.6977 7.5767 12.7324 7.76732 12.809 7.9436L10.3137 10.3417L7.81835 12.7398C7.63758 12.6346 7.43521 12.5834 7.23283 12.5861L4.54297 4.40176C4.65693 4.33822 4.76434 4.26101 4.86193 4.16741C4.95951 4.07381 5.04204 3.96791 5.11212 3.85449L12.7108 7.32254H12.7101Z" fill="white"/>
<path d="M2.26712 13.7113L6.10576 14.0796C6.15029 14.2846 6.24526 14.4759 6.38542 14.6344C6.53344 14.8018 6.71616 14.9152 6.91134 14.9753L6.99124 18.1796L7.02595 19.5713C6.91396 19.6185 6.80786 19.6827 6.70962 19.7654L1.90625 14.3249C2.07195 14.1486 2.19442 13.9395 2.26712 13.71V13.7113Z" fill="white"/>
<path d="M3.75538 4.59011C3.78026 4.59148 3.80515 4.59011 3.83004 4.59011L6.53889 12.8325C6.50876 12.8565 6.47995 12.881 6.45178 12.9084C6.32931 13.0259 6.235 13.1666 6.17081 13.3217L2.32498 12.9528C2.27782 12.644 2.14552 12.3563 1.9379 12.1213C1.74011 11.8972 1.48992 11.7414 1.21484 11.6629L3.43969 4.54297C3.54186 4.56961 3.64731 4.5867 3.75538 4.59148V4.59011Z" fill="white"/>
<path d="M8.41009 13.9365C8.43236 13.7213 8.40026 13.5013 8.3125 13.3004L13.3038 8.50488C13.4885 8.61215 13.6962 8.66339 13.9038 8.65861L16.7921 17.1128C16.6847 17.175 16.5825 17.2488 16.4901 17.3376C16.3978 17.4264 16.3185 17.5262 16.2504 17.6328L8.41074 13.9365H8.41009Z" fill="white"/>
<path d="M12.5423 1.92855C12.7709 2.18749 13.0682 2.35557 13.3937 2.41774L13.397 2.55575L13.4802 6.28684C13.3348 6.34014 13.1979 6.42417 13.0774 6.53964C13.0492 6.56697 13.023 6.59498 12.9981 6.62436L10.3934 5.43555L5.34577 3.13171C5.34774 3.10575 5.35167 3.08047 5.35232 3.05451C5.35691 2.94519 5.35036 2.83792 5.33398 2.73271L12.1533 1.08887C12.1991 1.4011 12.3321 1.69216 12.5417 1.92992L12.5423 1.92855Z" fill="white"/>
<path d="M19.3174 7.23088C19.1746 7.36821 19.0613 7.52945 18.9788 7.70572L15.0229 7.20082C14.983 6.98697 14.8887 6.782 14.7367 6.60983C14.59 6.44312 14.4079 6.33039 14.2141 6.26958L14.1283 2.42507L14.127 2.37315C14.3437 2.30414 14.5455 2.18594 14.7177 2.0206C14.7177 2.0206 14.719 2.01924 14.7197 2.01855L19.32 7.22883C19.32 7.22883 19.3187 7.22951 19.318 7.2302L19.3174 7.23088Z" fill="white"/>
<path d="M17.5941 16.9138C17.5626 16.9125 17.5312 16.9138 17.4997 16.9145L14.5918 8.4022C14.618 8.38102 14.6435 8.35984 14.6678 8.33593C14.783 8.22525 14.8715 8.09543 14.9337 7.95605L18.8227 8.45276C18.8326 8.84083 18.9727 9.20772 19.2275 9.49604C19.4187 9.71263 19.6578 9.86499 19.9217 9.94629L17.8809 16.9555C17.7873 16.933 17.691 16.9186 17.5934 16.9145L17.5941 16.9138Z" fill="white"/>
<path d="M8.4056 19.8944C8.22549 19.6901 7.99626 19.561 7.75393 19.5064L7.64062 14.9568C7.78471 14.9035 7.92094 14.8194 8.04014 14.7046C8.06503 14.6807 8.0873 14.6561 8.10957 14.6309L16.003 18.3524C15.9997 18.3852 15.9958 18.4173 15.9944 18.4501C15.9905 18.556 15.9964 18.6605 16.0115 18.763L8.69771 20.4595C8.64793 20.2504 8.54904 20.057 8.4056 19.8937V19.8944Z" fill="white"/>
<path d="M4.62423 3.02232C4.61571 3.23753 4.5286 3.44933 4.36487 3.60647C4.0374 3.92144 3.52719 3.89958 3.22526 3.55797C3.07462 3.38716 3.00389 3.16853 3.0124 2.95331C3.02092 2.7381 3.10803 2.5263 3.27176 2.36915C3.59924 2.05419 4.10944 2.07605 4.41137 2.41766C4.56201 2.58847 4.63274 2.8071 4.62423 3.02232Z" fill="white"/>
<path d="M14.2223 1.45999C13.8948 1.77496 13.3846 1.75309 13.0827 1.41148C12.932 1.24068 12.8613 1.02204 12.8698 0.806827C12.8783 0.591611 12.9654 0.379811 13.1292 0.22267C13.4567 -0.0922973 13.9669 -0.070434 14.2688 0.271179C14.4194 0.441985 14.4902 0.660617 14.4816 0.875833C14.4731 1.09105 14.386 1.30285 14.2223 1.45999Z" fill="white"/>
<path d="M19.7624 8.97984C19.6117 8.80903 19.541 8.5904 19.5495 8.37519C19.558 8.15997 19.6451 7.94817 19.8089 7.79103C20.1363 7.47606 20.6465 7.49793 20.9485 7.83954C21.0991 8.01034 21.1698 8.22898 21.1613 8.44419C21.1528 8.65941 21.0657 8.87121 20.902 9.02835C20.5745 9.34332 20.0643 9.32145 19.7624 8.97984Z" fill="white"/>
<path d="M16.7233 18.4826C16.7319 18.2674 16.819 18.0556 16.9827 17.8985C17.3102 17.5835 17.8204 17.6053 18.1223 17.947C18.2729 18.1178 18.3437 18.3364 18.3352 18.5516C18.3267 18.7668 18.2395 18.9786 18.0758 19.1358C17.7483 19.4507 17.2381 19.4289 16.9362 19.0873C16.7856 18.9165 16.7148 18.6978 16.7233 18.4826Z" fill="white"/>
<path d="M6.94559 20.1572C7.27306 19.8423 7.78326 19.8641 8.08519 20.2057C8.23583 20.3766 8.30657 20.5952 8.29805 20.8104C8.28954 21.0256 8.20243 21.2374 8.0387 21.3946C7.71122 21.7095 7.20102 21.6877 6.89909 21.3461C6.74845 21.1752 6.67772 20.9566 6.68623 20.7414C6.69475 20.5262 6.78186 20.3144 6.94559 20.1572Z" fill="white"/>
</svg>
