<svg width="25" height="22" viewBox="0 0 25 22" fill="none" xmlns="http://www.w3.org/2000/svg">
<path d="M1.45312 11C1.45312 16.5228 6.39834 21 12.4986 21C14.3286 21 15.8122 19.6569 15.8122 18V17.5C15.8122 17.0356 15.8122 16.8034 15.8406 16.6084C16.0363 15.2622 17.2064 14.2029 18.6933 14.0257C18.9087 14 19.1652 14 19.6781 14H20.2304C22.0605 14 23.544 12.6569 23.544 11C23.544 5.47715 18.5988 1 12.4986 1C6.39834 1 1.45312 5.47715 1.45312 11Z" stroke="white" stroke-width="2" stroke-linecap="round" stroke-linejoin="round"/>
<path d="M6.97585 12C7.58588 12 8.0804 11.5523 8.0804 11C8.0804 10.4477 7.58588 10 6.97585 10C6.36583 10 5.87131 10.4477 5.87131 11C5.87131 11.5523 6.36583 12 6.97585 12Z" stroke="white" stroke-width="2" stroke-linecap="round" stroke-linejoin="round"/>
<path d="M16.9168 8C17.5268 8 18.0213 7.55228 18.0213 7C18.0213 6.44772 17.5268 6 16.9168 6C16.3067 6 15.8122 6.44772 15.8122 7C15.8122 7.55228 16.3067 8 16.9168 8Z" stroke="white" stroke-width="2" stroke-linecap="round" stroke-linejoin="round"/>
<path d="M10.2895 7C10.8995 7 11.394 6.55228 11.394 6C11.394 5.44772 10.8995 5 10.2895 5C9.67946 5 9.18494 5.44772 9.18494 6C9.18494 6.55228 9.67946 7 10.2895 7Z" stroke="white" stroke-width="2" stroke-linecap="round" stroke-linejoin="round"/>
</svg>
