<svg width="28" height="22" viewBox="0 0 28 22" fill="none" xmlns="http://www.w3.org/2000/svg">
<path d="M25.7298 16V5C25.7298 3.59987 25.7298 2.8998 25.4533 2.36502C25.21 1.89462 24.8218 1.51217 24.3444 1.27248C23.8016 1 23.0911 1 21.6701 1H6.95344C5.53239 1 4.82186 1 4.27909 1.27248C3.80166 1.51217 3.41349 1.89462 3.17023 2.36502C2.89368 2.8998 2.89368 3.59987 2.89368 5V16M5.00813 21H23.6154C24.4019 21 24.7952 21 25.1179 20.9148C25.9935 20.6836 26.6774 20.0098 26.9121 19.147C26.9985 18.8291 26.9985 18.4416 26.9985 17.6667C26.9985 17.2792 26.9985 17.0854 26.9553 16.9265C26.838 16.4951 26.496 16.1582 26.0582 16.0426C25.8969 16 25.7002 16 25.3069 16H3.31657C2.92329 16 2.72665 16 2.56532 16.0426C2.12751 16.1582 1.78554 16.4951 1.66823 16.9265C1.625 17.0854 1.625 17.2792 1.625 17.6667C1.625 18.4416 1.625 18.8291 1.71146 19.147C1.94608 20.0098 2.63002 20.6836 3.50564 20.9148C3.8283 21 4.22158 21 5.00813 21Z" stroke="white" stroke-width="2" stroke-linecap="round" stroke-linejoin="round"/>
</svg>
