<svg width="22" height="22" viewBox="0 0 22 22" fill="none" xmlns="http://www.w3.org/2000/svg">
<path d="M16.5556 7.6666C16.5555 7.09791 16.3386 6.52922 15.9047 6.09532C15.4708 5.6614 14.9021 5.44444 14.3333 5.44444M14.3333 14.3333C18.0152 14.3333 21 11.3486 21 7.66667C21 3.98477 18.0152 1 14.3333 1C10.6514 1 7.66667 3.98477 7.66667 7.66667C7.66667 7.97075 7.68703 8.27009 7.72646 8.56337C7.79131 9.04576 7.82373 9.28695 7.80191 9.43954C7.77917 9.59851 7.75022 9.68416 7.67188 9.82433C7.59667 9.95889 7.46412 10.0914 7.19904 10.3565L1.5207 16.0349C1.32853 16.227 1.23245 16.3231 1.16373 16.4352C1.10281 16.5347 1.05792 16.643 1.0307 16.7564C1 16.8843 1 17.0202 1 17.2919V19.2222C1 19.8445 1 20.1556 1.1211 20.3933C1.22763 20.6024 1.39761 20.7724 1.60668 20.8789C1.84436 21 2.1555 21 2.77778 21H5.44444V18.7778H7.66667V16.5556H9.88889L11.6435 14.801C11.9086 14.5359 12.0411 14.4033 12.1757 14.3281C12.3158 14.2498 12.4015 14.2208 12.5605 14.1981C12.7131 14.1763 12.9542 14.2087 13.4366 14.2735C13.7299 14.313 14.0292 14.3333 14.3333 14.3333Z" stroke="white" stroke-width="2" stroke-linecap="round" stroke-linejoin="round"/>
</svg>
