<svg width="26" height="23" viewBox="0 0 26 23" fill="none" xmlns="http://www.w3.org/2000/svg">
<path d="M13.3833 16.7498C9.25057 16.7498 5.90035 13.54 5.90035 9.58065V3.02428C5.90035 2.45277 5.90035 2.16702 6.00821 1.94541C6.1226 1.7104 6.31975 1.52152 6.56504 1.41193C6.79635 1.30859 7.09461 1.30859 7.69113 1.30859H19.0754C19.6719 1.30859 19.9702 1.30859 20.2015 1.41193C20.4468 1.52152 20.6439 1.7104 20.7583 1.94541C20.8662 2.16702 20.8662 2.45277 20.8662 3.02428V9.58065C20.8662 13.54 17.516 16.7498 13.3833 16.7498ZM13.3833 16.7498V21.1615M19.1393 21.1615H7.62718M24.8954 3.51448V9.02918M1.87109 3.51448V9.02918" stroke="white" stroke-width="2" stroke-linecap="round" stroke-linejoin="round"/>
</svg>
