<svg width="26" height="26" viewBox="0 0 26 26" fill="black"  xmlns="http://www.w3.org/2000/svg">
<path  d="M22.6 13C22.6 18.3019 18.3019 22.6 13 22.6M22.6 13C22.6 7.69807 18.3019 3.4 13 3.4M22.6 13H3.4M13 22.6C7.69807 22.6 3.4 18.3019 3.4 13M13 22.6C15.4012 19.9712 16.7665 16.5596 16.8407 13C16.7665 9.44035 15.4012 6.02882 13 3.4M13 22.6C10.5988 19.9712 9.23482 16.5596 9.16066 13C9.23482 9.44035 10.5988 6.02882 13 3.4M3.4 13C3.4 7.69807 7.69807 3.4 13 3.4M5.8 22.6C5.8 23.9255 4.72548 25 3.4 25C2.07452 25 1 23.9255 1 22.6C1 21.2745 2.07452 20.2 3.4 20.2C4.72548 20.2 5.8 21.2745 5.8 22.6ZM25 22.6C25 23.9255 23.9255 25 22.6 25C21.2745 25 20.2 23.9255 20.2 22.6C20.2 21.2745 21.2745 20.2 22.6 20.2C23.9255 20.2 25 21.2745 25 22.6ZM5.8 3.4C5.8 4.72548 4.72548 5.8 3.4 5.8C2.07452 5.8 1 4.72548 1 3.4C1 2.07452 2.07452 1 3.4 1C4.72548 1 5.8 2.07452 5.8 3.4ZM25 3.4C25 4.72548 23.9255 5.8 22.6 5.8C21.2745 5.8 20.2 4.72548 20.2 3.4C20.2 2.07452 21.2745 1 22.6 1C23.9255 1 25 2.07452 25 3.4Z" stroke="white" stroke-width="2" stroke-linecap="round" stroke-linejoin="round"/>
</svg>
