<svg width="26" height="26" viewBox="0 0 26 26" fill="none" xmlns="http://www.w3.org/2000/svg">
<path d="M1.42539 9.12688H24.5746M10.5632 1L8.12648 9.12688L13 24.7034L17.8735 9.12688L15.4368 1M13.7488 24.3817L24.6638 9.82057C24.8488 9.57379 24.9413 9.45041 24.9766 9.31267C25.0078 9.19123 25.0078 9.06253 24.9766 8.94109C24.9413 8.80336 24.8488 8.67997 24.6638 8.43319L19.3842 1.38989C19.2767 1.24657 19.223 1.17492 19.1572 1.1234C19.0988 1.07776 19.0337 1.04386 18.9648 1.02326C18.8871 1 18.8032 1 18.6354 1H7.36463C7.19682 1 7.11291 1 7.03516 1.02326C6.96627 1.04386 6.90117 1.07776 6.84283 1.1234C6.77698 1.17492 6.72327 1.24658 6.61584 1.38989L1.33619 8.43318C1.15121 8.67996 1.05872 8.80335 1.02337 8.94109C0.992209 9.06253 0.992209 9.19123 1.02337 9.31267C1.05872 9.4504 1.15121 9.57379 1.33619 9.82057L12.2512 24.3817C12.5084 24.7248 12.6369 24.8963 12.7909 24.9588C12.9259 25.0137 13.0741 25.0137 13.2091 24.9588C13.3631 24.8963 13.4916 24.7248 13.7488 24.3817Z" stroke="white" stroke-width="2" stroke-linecap="round" stroke-linejoin="round"/>
</svg>
