<svg width="24" height="24" viewBox="0 0 24 24" fill="white" xmlns="http://www.w3.org/2000/svg">
<path d="M17.752 20.0902C16.0556 21.3315 14.0125 22 11.9156 22C9.81866 22 7.77556 21.3315 6.07912 20.0902M16.2684 3.01206C18.1531 3.93781 19.6984 5.44068 20.6829 7.30528C21.6673 9.16989 22.0404 11.3005 21.7485 13.3917M2.08273 13.3916C1.79089 11.3004 2.16393 9.16979 3.14838 7.30519C4.13282 5.44059 5.67813 3.93771 7.56283 3.01196M11.3539 6.56569L6.51953 11.4343C6.32292 11.6323 6.22461 11.7313 6.18778 11.8455C6.15538 11.9459 6.15538 12.0541 6.18778 12.1545C6.22461 12.2687 6.32292 12.3677 6.51953 12.5657L11.3539 17.4343C11.5505 17.6323 11.6488 17.7313 11.7622 17.7684C11.8619 17.8011 11.9693 17.8011 12.069 17.7684C12.1824 17.7313 12.2807 17.6323 12.4773 17.4343L17.3116 12.5657C17.5082 12.3677 17.6065 12.2687 17.6434 12.1545C17.6758 12.0541 17.6758 11.9459 17.6434 11.8455C17.6065 11.7313 17.5082 11.6323 17.3116 11.4343L12.4773 6.56569C12.2807 6.36768 12.1824 6.26867 12.069 6.23158C11.9693 6.19895 11.8619 6.19895 11.7622 6.23158C11.6488 6.26867 11.5505 6.36768 11.3539 6.56569Z" stroke="black" stroke-width="2" stroke-linecap="round" stroke-linejoin="round"/>
</svg>
