<svg width="26" height="24" viewBox="0 0 26 24" fill="none" xmlns="http://www.w3.org/2000/svg">
<path d="M12.6621 2.49999V21.5M21.1035 12C21.1035 16.9084 15.4541 20.4784 13.3986 21.6149C13.165 21.744 13.0482 21.8086 12.8833 21.8421C12.7554 21.8681 12.5688 21.8681 12.4408 21.8421C12.276 21.8086 12.1592 21.744 11.9256 21.6149C9.87006 20.4784 4.2207 16.9084 4.2207 12V7.21759C4.2207 6.41808 4.2207 6.01833 4.35868 5.6747C4.48057 5.37113 4.67863 5.10027 4.93575 4.88552C5.22681 4.64243 5.62176 4.50207 6.41167 4.22134L12.0693 2.21067C12.2887 2.13271 12.3983 2.09373 12.5112 2.07827C12.6113 2.06457 12.7129 2.06457 12.813 2.07827C12.9258 2.09373 13.0355 2.13271 13.2549 2.21067L18.9125 4.22134C19.7024 4.50207 20.0974 4.64243 20.3884 4.88552C20.6455 5.10027 20.8436 5.37113 20.9655 5.6747C21.1035 6.01833 21.1035 6.41808 21.1035 7.21759V12Z" stroke="white" stroke-width="2" stroke-linecap="round" stroke-linejoin="round"/>
</svg>
