<svg width="23" height="24" viewBox="0 0 23 24" fill="black" xmlns="http://www.w3.org/2000/svg">
<path d="M12.1123 14.8446L16.6157 21.9999M10.0421 14.8446L5.53876 21.9999M12.9234 13.2C12.9234 14.3045 12.0968 15.2 11.0772 15.2C10.0576 15.2 9.23107 14.3045 9.23107 13.2C9.23107 12.0954 10.0576 11.2 11.0772 11.2C12.0968 11.2 12.9234 12.0954 12.9234 13.2ZM15.8297 4.53225L4.95188 7.68984C4.7022 7.76232 4.57736 7.79855 4.49502 7.87888C4.42259 7.94953 4.37266 8.04321 4.3524 8.14649C4.32936 8.26391 4.36281 8.39915 4.42971 8.66964L5.242 11.9538C5.30891 12.2243 5.34236 12.3595 5.4165 12.4487C5.48172 12.5272 5.56819 12.5813 5.66353 12.6032C5.77191 12.6282 5.89675 12.5919 6.14643 12.5195L17.0242 9.36188L15.8297 4.53225ZM20.1163 9.49958C19.1176 9.78949 18.6183 9.93444 18.1847 9.83461C17.8034 9.74679 17.4575 9.53045 17.1966 9.21657C16.9 8.85975 16.7662 8.31878 16.4986 7.23684L16.3553 6.65728C16.0877 5.57535 15.9539 5.03438 16.046 4.56471C16.1271 4.15158 16.3268 3.77686 16.6165 3.49425C16.9459 3.17296 17.4453 3.02801 18.444 2.7381C18.6937 2.66562 18.8185 2.62939 18.9269 2.65434C19.0222 2.6763 19.1087 2.73038 19.1739 2.80885C19.2481 2.89806 19.2815 3.0333 19.3484 3.30379L20.6385 8.51979C20.7054 8.79027 20.7389 8.92551 20.7158 9.04293C20.6956 9.14621 20.6456 9.23989 20.5732 9.31055C20.4909 9.39087 20.366 9.42711 20.1163 9.49958ZM3.23265 12.33L4.48092 11.9677C4.7306 11.8952 4.85544 11.8589 4.93778 11.7786C5.01022 11.708 5.06014 11.6143 5.08041 11.511C5.10345 11.3936 5.07 11.2583 5.00309 10.9879L4.66862 9.63556C4.60172 9.36508 4.56827 9.22983 4.49413 9.14063C4.42891 9.06216 4.34243 9.00807 4.24709 8.98612C4.13871 8.96116 4.01387 8.9974 3.76419 9.06988L2.51592 9.43222C2.26624 9.5047 2.1414 9.54094 2.05906 9.62126C1.98663 9.69191 1.9367 9.78559 1.91644 9.88888C1.8934 10.0063 1.92685 10.1415 1.99375 10.412L2.32822 11.7643C2.39512 12.0348 2.42857 12.17 2.50272 12.2592C2.56794 12.3377 2.65441 12.3918 2.74975 12.4138C2.85813 12.4387 2.98297 12.4025 3.23265 12.33Z" stroke="white" stroke-width="2" stroke-linecap="round" stroke-linejoin="round"/>
</svg>
