<svg width="24" height="24" viewBox="0 0 24 24" fill="none" xmlns="http://www.w3.org/2000/svg">
<path d="M5.28261 19.4384C5.88709 18.0052 7.2984 17 8.943 17H14.905C16.5496 17 17.9609 18.0052 18.5654 19.4384M15.8987 9.5C15.8987 11.7091 14.1192 13.5 11.924 13.5C9.72886 13.5 7.94933 11.7091 7.94933 9.5C7.94933 7.29086 9.72886 5.5 11.924 5.5C14.1192 5.5 15.8987 7.29086 15.8987 9.5ZM21.8607 12C21.8607 17.5228 17.4119 22 11.924 22C6.43612 22 1.9873 17.5228 1.9873 12C1.9873 6.47715 6.43612 2 11.924 2C17.4119 2 21.8607 6.47715 21.8607 12Z" stroke="white" stroke-width="2" stroke-linecap="round" stroke-linejoin="round"/>
</svg>
